<?xml version="1.0" encoding="utf-8"?>
<!-- Generator: Adobe Illustrator 22.1.0, SVG Export Plug-In . SVG Version: 6.00 Build 0)  -->
<svg version="1.1" id="Layer_1" xmlns="http://www.w3.org/2000/svg" xmlns:xlink="http://www.w3.org/1999/xlink" x="0px" y="0px"
	 viewBox="0 0 711 46" style="enable-background:new 0 0 711 46;" xml:space="preserve">
<style type="text/css">
	.st0{fill:#000036;}
</style>
<g>
	<path class="st0" d="M18.7,0.3c13.1,0,23.2,9.7,23.2,22.5c0,12.8-10.1,22.5-23.4,22.5h-18V0.3H18.7z M5.6,40.5h13.1
		c10,0,17.9-7.5,17.9-17.6c0-10.1-8-17.6-18.1-17.6H5.6V40.5z"/>
	<path class="st0" d="M61.1,34l-5,11.4h-5.5L70.9,0.3h5.3l20.1,45.1h-5.6l-5-11.4H61.1z M73.4,6.2L63.3,29h20.2L73.4,6.2z"/>
	<path class="st0" d="M120,5.3v40.1h-5.1V5.3h-14.7v-5h34.6v5H120z"/>
	<path class="st0" d="M149.1,34l-5,11.4h-5.5l20.2-45.1h5.3l20.1,45.1h-5.6l-5-11.4H149.1z M161.3,6.2l-10,22.8h20.2L161.3,6.2z"/>
	<path class="st0" d="M225.6,4.3l-2.2,4.8c-4.1-2.7-8.8-3.8-12.4-3.8c-5.8,0-9.6,2.2-9.6,6c0,11.6,25.4,5.5,25.3,21.9
		c0,7.5-6.6,12.4-16.3,12.4c-6.6,0-13-2.8-17.2-6.9l2.3-4.6c4.2,4.1,9.9,6.4,15,6.4c6.5,0,10.6-2.6,10.6-7
		c0.1-11.8-25.3-5.5-25.3-21.7c0-7.1,6.2-11.6,15.6-11.6C216.5,0.1,221.8,1.8,225.6,4.3z"/>
	<path class="st0" d="M280,6.8l-3.1,3.9c-3.5-3.5-8.4-5.7-13.3-5.7c-10.2,0-18.3,7.9-18.3,17.8c0,9.8,8.2,17.8,18.3,17.8
		c5,0,9.8-2.1,13.3-5.4l3.2,3.5c-4.4,4.2-10.5,7-16.7,7c-13,0-23.3-10.1-23.3-22.8c0-12.6,10.4-22.6,23.5-22.6
		C269.7,0.2,275.7,2.7,280,6.8z"/>
	<path class="st0" d="M296.4,45.4V0.3h5.1v45.1H296.4z"/>
	<path class="st0" d="M327.5,5.3v14.8h22.7v5h-22.7v15.4h26.3v4.9h-31.4V0.3h30.6v5H327.5z"/>
	<path class="st0" d="M403.5,45.4l-27-36.2v36.2h-5.1V0.3h5.3l27,36.2V0.3h5.1v45.1H403.5z"/>
	<path class="st0" d="M465.2,6.8l-3.1,3.9c-3.5-3.5-8.4-5.7-13.3-5.7c-10.2,0-18.3,7.9-18.3,17.8c0,9.8,8.2,17.8,18.3,17.8
		c5,0,9.8-2.1,13.3-5.4l3.2,3.5c-4.4,4.2-10.5,7-16.7,7c-13,0-23.3-10.1-23.3-22.8c0-12.6,10.4-22.6,23.5-22.6
		C454.9,0.2,460.9,2.7,465.2,6.8z"/>
	<path class="st0" d="M486.8,5.3v14.8h22.7v5h-22.7v15.4h26.3v4.9h-31.4V0.3h30.6v5H486.8z"/>
	<path class="st0" d="M581.8,22v18.1c-4.9,3.3-12.9,5.8-19.3,5.8c-14,0-24.3-9.8-24.3-23.1c0-13.2,10.6-23,25.2-23
		c6.9,0,14.3,2.6,19.1,6.8l-7.6,9.2c-3.1-3-7.6-4.9-11.5-4.9c-6.5,0-11.4,5.1-11.4,11.8c0,6.9,5,11.9,11.5,11.9
		c1.9,0,4.4-0.6,6.8-1.7V22H581.8z"/>
	<path class="st0" d="M642.1,22.8c0,13.3-10.4,23.2-24.6,23.2c-14.2,0-24.6-9.8-24.6-23.2c0-13.3,10.4-22.9,24.6-22.9
		C631.7-0.1,642.1,9.6,642.1,22.8z M606.6,22.8c0,6.8,5.1,11.9,11.1,11.9c5.9,0,10.7-5.1,10.7-11.9c0-6.8-4.8-11.8-10.7-11.8
		C611.7,11.1,606.6,16,606.6,22.8z"/>
	<path class="st0" d="M704.5,45.4h-6.2l-13.7-18.9l-13.6,18.9h-6l16.5-23.2L666.2,0.3h6l12.4,17.4l12.6-17.4h6l-15.3,21.6
		L704.5,45.4z"/>
</g>
</svg>
