<?xml version="1.0" encoding="utf-8"?>
<!-- Generator: Adobe Illustrator 22.1.0, SVG Export Plug-In . SVG Version: 6.00 Build 0)  -->
<svg version="1.1" id="Capa_1" xmlns="http://www.w3.org/2000/svg" xmlns:xlink="http://www.w3.org/1999/xlink" x="0px" y="0px"
	 viewBox="0 0 511.6 511.6" style="enable-background:new 0 0 511.6 511.6;" xml:space="preserve">
<style type="text/css">
	.st0{fill:#21AFED;}
	.st1{fill:#FFFFFF;}
	.st2{fill:#D7F1FF;}
	.st3{fill:#86CEEF;}
	.st4{fill:#5C9EFF;}
	.st5{fill:#009CDE;}
	.st6{fill:#0079AD;}
</style>
<path class="st0" d="M374.3,327.9l-36.7-36.7l0,0l0,0l-98.9-98.9l-21.4-1.3l-62.1-28.4L69,248.8l28.5,84.5l90.3,90.3
	c0.6,4.1,2.4,8.1,5.6,11.2l0,0l67.8,67.8l0,0c7.8,7.8,20.5,7.8,28.3,0s7.8-20.5,0-28.3l0,0l-30.8-30.8l8.5-8.5l30.8,30.8l0,0
	c7.8,7.8,20.5,7.8,28.3,0s7.8-20.5,0-28.3l0,0l-30.8-30.8l11.1-11.1l31.1,31.1l0,0c7.8,7.8,20.5,7.8,28.3,0s7.8-20.5,0-28.3l0,0
	l-31.1-31.1l11.3-11.3l31.1,31.1l0,0c7.8,7.8,20.5,7.8,28.3,0s7.8-20.5,0-28.3l0,0L374.3,327.9z"/>
<polygon class="st0" points="43.6,8.5 4.1,229 18.2,243.1 148.2,113.1 "/>
<polygon class="st1" points="481.7,220.5 453.5,248.7 346.1,141.3 374.3,113.1 "/>
<polygon class="st0" points="507.8,217 493,231.8 363,101.8 456.4,8.4 "/>
<g>
	
		<rect x="21.4" y="172.2" transform="matrix(0.7071 -0.7071 0.7071 0.7071 -107.4132 125.1027)" class="st2" width="151.9" height="40"/>
	<path class="st1" d="M17.4,194.4c3.1,3.1,3.1,8.2,0,11.3s-8.2,3.1-11.3,0c-3.1-3.1-3.1-8.2,0-11.3C9.2,191.2,14.3,191.2,17.4,194.4
		z"/>
</g>
<g>
	<path class="st3" d="M142.8,378.5l9.4-9.4l0,0L142.8,378.5l39.6,39.6l15-15l0,0l0.4-0.5c10.9-10.9,10.9-28.7,0-39.6
		c-10.9-10.9-28.7-10.9-39.6,0l-0.4,0.4l0,0l-5.2,5.2c10.9-10.9,10.9-28.7,0-39.6c-10.9-10.9-28.7-10.9-39.6,0l-0.4,0.4l0,0
		l-9.4,9.4L142.8,378.5z"/>
	<path class="st3" d="M237.4,442.2l-0.4,0.4l0,0l-16,16l0,0l0,0l0,0l21.7-21.7l0,0l0.4-0.4c10.9-10.9,10.9-28.7,0-39.6
		c-10.9-10.9-28.7-10.9-39.6,0l-0.4,0.4l0,0L182.4,418l8.3,8.3c0.6,4.1,2.4,8.1,5.6,11.2l0,0l22.7,22.7c0.5-0.4,1-0.7,1.5-1.2
		c-0.5,0.5-0.8,1-1.2,1.5l39.3,39.3c0.5-0.4,1-0.8,1.5-1.2l0.4-0.4l0,0l16-16l0,0l0.4-0.5c3.6-3.6,6-8.1,7.2-12.7l-25.5-25.5
		l7.9-7.8C256.7,432.2,245.3,434.3,237.4,442.2z"/>
	<path class="st4" d="M266.5,435.7c0.7,0.2,1.4,0.5,2.1,0.8l-1.4-1.4L266.5,435.7z"/>
</g>
<g>
	<path class="st2" d="M117.1,336.4L117.1,336.4l-11.3,11.3l0,0c-7.8,7.8-7.8,20.5,0,28.3s20.5,7.8,28.3,0l0,0l11.2-11.2l0,0
		c7.8-7.8,7.8-20.5,0-28.3C137.6,328.6,124.9,328.6,117.1,336.4z"/>
	<path class="st2" d="M162.3,370.3L162.3,370.3l-16.9,16.9l0,0c-7.8,7.8-7.8,20.5,0,28.3s20.5,7.8,28.3,0l0,0l16.9-16.9l0,0
		c7.8-7.8,7.8-20.5,0-28.3S170.1,362.5,162.3,370.3z"/>
</g>
<path class="st5" d="M289.5,243l-50.8-50.8l-8.8-0.5c-11.5,11-41.9,39.9-44.9,42.9l0,0c-10.9,10.9-10.9,28.7,0,39.6
	c10.9,10.9,28.7,10.9,39.6,0c11.8-11.8,52.3-42.1,65.2-30.9C289.7,243.3,289.5,243,289.5,243z"/>
<g>
	<path class="st2" d="M241.5,449.4L241.5,449.4l-16.9,16.9l0,0c-7.8,7.8-7.8,20.5,0,28.3s20.5,7.8,28.3,0l0,0l16.9-16.9l0,0
		c7.8-7.8,7.8-20.5,0-28.3C261.9,441.6,249.3,441.6,241.5,449.4z"/>
	<path class="st2" d="M207.6,404.2C207.6,404.2,207.5,404.2,207.6,404.2L185,426.8l0,0c-7.8,7.8-7.8,20.5,0,28.3s20.5,7.8,28.3,0
		l0,0l22.6-22.5l0,0c7.8-7.8,7.8-20.5,0-28.3C228,396.4,215.4,396.4,207.6,404.2z"/>
</g>
<g>
	<path class="st1" d="M117.1,364.6c-7.8-7.8-7.8-20.5,0-28.3l0,0l0,0l-11.2,11.2l0,0c-7.8,7.8-7.8,20.5,0,28.3s20.5,7.8,28.3,0l0,0
		l11.2-11.2l0,0l0,0C137.6,372.4,124.9,372.4,117.1,364.6z"/>
	<path class="st1" d="M156.7,404.2c-7.8-7.8-7.8-20.4,0-28.2l-11.2,11.2l0,0c-7.8,7.8-7.8,20.5,0,28.3s20.5,7.8,28.3,0l0,0
		l11.2-11.2C177.1,412,164.5,412,156.7,404.2z"/>
	<path class="st1" d="M235.8,483.3c-7.8-7.8-7.8-20.4,0-28.2l-11.3,11.2l0,0c-7.8,7.8-7.8,20.5,0,28.3s20.5,7.8,28.3,0l0,0
		l11.2-11.2C256.3,491.1,243.6,491.1,235.8,483.3z"/>
	<path class="st1" d="M196.3,443.8c-7.8-7.8-7.8-20.4,0-28.2l-11.2,11.2l0,0c-7.8,7.8-7.8,20.5,0,28.3s20.5,7.8,28.3,0l0,0
		l11.2-11.2C216.7,451.6,204.1,451.5,196.3,443.8z"/>
</g>
<g>
	<path class="st2" d="M280.1,493.7c-7.8,7.8-20.5,7.8-28.3,0l0,0l0,0l11.2,11.2l0,0c7.8,7.8,20.5,7.8,28.3,0s7.8-20.5,0-28.3l0,0
		l-11.2-11.2l0,0l0,0C287.9,473.2,287.9,485.9,280.1,493.7z"/>
	<path class="st3" d="M316.8,456.9c-7.8,7.8-20.4,7.8-28.2,0l11.2,11.2l0,0c7.8,7.8,20.5,7.8,28.3,0s7.8-20.5,0-28.3l0,0l-11.2-11.3
		C324.6,436.5,324.6,449.1,316.8,456.9z"/>
	<path class="st3" d="M395.9,377.8c-7.8,7.8-20.4,7.8-28.2,0l11.2,11.2l0,0c7.8,7.8,20.5,7.8,28.3,0s7.8-20.5,0-28.3l0,0l-11.3-11.3
		C403.7,357.3,403.7,370,395.9,377.8z"/>
	<path class="st3" d="M356.4,417.3c-7.8,7.8-20.4,7.8-28.2,0l11.2,11.3l0,0c7.8,7.8,20.5,7.8,28.3,0s7.8-20.5,0-28.3l0,0l-11.2-11.2
		C364.2,396.9,364.2,409.6,356.4,417.3z"/>
	<path class="st2" d="M239.8,193.3c0,0-45.5,43.3-49.1,46.9c-7.8,7.8-7.8,20.5,0,28.3s20.5,7.8,28.3,0s50.6-43.5,70.7-25.4
		L400,353.4c29.8-35.5,43.1-115.2,43.1-115.2l-85.5-85.5C357.4,152.6,271.7,170.1,239.8,193.3z"/>
</g>
<path class="st3" d="M399.8,353.3c3.3-3.9,6.4-8.5,9.3-13.4c0,0-56.4-56.4-119.6-96.9L399.8,353.3z"/>
<polygon class="st1" points="155.2,162.6 69.1,248.7 74.8,265.6 170.7,169.7 "/>
<path class="st0" d="M439.1,257c2.6-11.3,3.8-18.8,3.8-18.8l-85.5-85.5c0,0-7.4,1.5-18.4,4.2L439.1,257z"/>
<polygon class="st3" points="136.9,124.4 148.2,113.1 43.6,8.5 40.2,27.6 "/>
<polygon class="st3" points="456.4,8.4 363,101.8 374.3,113.1 460.8,26.6 "/>
<g>
	<path class="st6" d="M275.4,513c-6.1,0-12.3-2.3-17-7c-1.6-1.6-1.6-4.1,0-5.7c1.6-1.6,4.1-1.6,5.7,0c6.2,6.2,16.4,6.2,22.6,0
		s6.2-16.4,0-22.6c-1.6-1.6-1.6-4.1,0-5.7s4.1-1.6,5.7,0c9.4,9.3,9.4,24.6,0,33.9C287.7,510.6,281.5,513,275.4,513z"/>
	<path class="st6" d="M312.2,476.2c-6.4,0-12.4-2.5-17-7c-1.6-1.6-1.6-4.1,0-5.7c1.6-1.6,4.1-1.6,5.7,0c6,6,16.6,6.1,22.6,0
		c3-3,4.7-7,4.7-11.3s-1.7-8.3-4.7-11.3l-31.1-31.1c-1.6-1.6-1.6-4.1,0-5.7s4.1-1.6,5.7,0l31.1,31.1c4.5,4.5,7,10.6,7,17
		s-2.5,12.4-7,17C324.6,473.7,318.6,476.2,312.2,476.2z"/>
	<path class="st6" d="M351.7,436.7c-6.1,0-12.3-2.3-17-7l-31.1-31.1c-1.6-1.6-1.6-4.1,0-5.7s4.1-1.6,5.7,0l31.1,31.1
		c6.2,6.2,16.4,6.2,22.6,0s6.2-16.4,0-22.6l-31.1-31.1c-1.6-1.6-1.6-4.1,0-5.7c1.6-1.6,4.1-1.6,5.7,0l31.1,31.1
		c9.4,9.4,9.4,24.6,0,33.9C364,434.3,357.9,436.7,351.7,436.7z"/>
	<path class="st6" d="M391.3,397.1c-6.1,0-12.3-2.3-17-7L343.2,359c-1.6-1.6-1.6-4.1,0-5.7s4.1-1.6,5.7,0l31.1,31.1
		c6.2,6.2,16.4,6.2,22.6,0c3-3,4.7-7,4.7-11.3s-1.7-8.3-4.7-11.3L286.7,245.9c-1.6-1.6-1.6-4.1,0-5.7c1.6-1.6,4.1-1.6,5.7,0
		l115.9,115.9c4.5,4.5,7,10.5,7,17c0,6.4-2.5,12.4-7,17C403.6,394.7,397.4,397.1,391.3,397.1z"/>
	<path class="st6" d="M97.6,337.3c-1.5,0-2.9-0.8-3.6-2.2c-17.3-34-23-67.3-23.2-68.8c-0.4-2.2,1.1-4.2,3.3-4.6
		c2.2-0.4,4.2,1.1,4.6,3.3c0.1,0.3,5.8,33.6,22.5,66.4c1,2,0.2,4.4-1.7,5.4C98.8,337.1,98.2,337.3,97.6,337.3z"/>
	<path class="st6" d="M217.3,194.9c-0.5,0-1-0.1-1.5-0.3C188,183,169.2,173.2,169,173.1c-2-1-2.7-3.4-1.7-5.4s3.4-2.7,5.4-1.7
		c0.2,0.1,18.7,9.7,46.2,21.2c2,0.9,3,3.2,2.1,5.2C220.3,194,218.8,194.9,217.3,194.9z"/>
	<path class="st6" d="M407.3,342.2c-0.8,0-1.6-0.2-2.3-0.7c-1.8-1.3-2.2-3.8-0.9-5.6c23.9-33.5,28.5-81.4,28.5-81.8
		c0.2-2.2,2.1-3.9,4.3-3.6c2.2,0.2,3.8,2.1,3.6,4.3c-0.2,2-4.8,50.6-30,85.8C409.7,341.6,408.5,342.2,407.3,342.2z"/>
	<path class="st6" d="M238.6,504.5L238.6,504.5c-6.4,0-12.4-2.5-17-7c-9.3-9.3-9.3-24.6,0-33.9l17-17c9.1-9,24.9-9.1,33.9,0
		c4.5,4.5,7,10.5,7,16.9s-2.5,12.4-7,17l-16.9,16.9C251.1,502,245.1,504.5,238.6,504.5z M255.6,447.6c-4.3,0-8.3,1.7-11.3,4.7
		l-17,17c-6.2,6.2-6.2,16.4,0,22.6c3,3,7,4.7,11.3,4.7l0,0c4.3,0,8.3-1.7,11.3-4.7l16.9-16.9c3-3,4.7-7,4.7-11.3s-1.7-8.3-4.7-11.3
		C263.9,449.2,259.9,447.6,255.6,447.6z"/>
	<path class="st6" d="M199.1,464.9L199.1,464.9c-6.4,0-12.4-2.5-17-7c-9.3-9.4-9.3-24.6,0-33.9l22.6-22.6c9.1-9.1,24.9-9,33.9,0
		c9.4,9.4,9.4,24.6,0,33.9L216,457.9C211.5,462.4,205.5,464.9,199.1,464.9z M221.7,402.3c-4.3,0-8.3,1.7-11.3,4.7l-22.6,22.6
		c-6.2,6.2-6.2,16.4,0,22.6c3,3,7,4.7,11.3,4.7l0,0c4.3,0,8.3-1.7,11.3-4.7l22.6-22.6c6.2-6.2,6.2-16.4,0-22.6
		C230,404,226,402.3,221.7,402.3z"/>
	<path class="st6" d="M159.5,425.3c-6.4,0-12.4-2.5-16.9-7s-7-10.5-7-16.9s2.5-12.4,7-17l17-17c9.1-9.1,24.9-9.1,33.9,0
		c4.5,4.5,7,10.5,7,16.9s-2.5,12.4-7,17l-17,17C171.9,422.8,165.9,425.3,159.5,425.3z M176.5,368.4c-4.3,0-8.3,1.7-11.3,4.7l-17,17
		c-3,3-4.7,7-4.7,11.3s1.7,8.3,4.7,11.3c6,6,16.6,6,22.6,0l17-17c3-3,4.7-7,4.7-11.3s-1.7-8.3-4.7-11.3
		C184.8,370.1,180.7,368.4,176.5,368.4z"/>
	<path class="st6" d="M119.9,385.8L119.9,385.8c-6.4,0-12.4-2.5-17-7c-9.3-9.4-9.3-24.6,0-33.9l11.3-11.3c9.1-9.1,24.8-9.1,33.9,0
		c9.4,9.4,9.4,24.6,0,33.9l-11.3,11.3C132.4,383.3,126.3,385.8,119.9,385.8z M131.2,334.5c-4.3,0-8.3,1.7-11.3,4.7l-11.3,11.3
		c-6.2,6.2-6.2,16.4,0,22.6c3,3,7,4.7,11.3,4.7l0,0c4.3,0,8.3-1.7,11.3-4.7l11.3-11.3c6.2-6.2,6.2-16.4,0-22.6
		C139.5,336.2,135.5,334.5,131.2,334.5z"/>
	<path class="st6" d="M204.7,278.4L204.7,278.4c-6.4,0-12.4-2.5-17-7c-9.3-9.3-9.3-24.6,0-33.9l36.7-36.8
		c34.5-34.5,112-45.9,115.3-46.4c2.2-0.3,4.2,1.2,4.5,3.4s-1.2,4.2-3.4,4.5c-0.8,0.1-78.2,11.5-110.8,44.1l-36.7,36.8
		c-6.2,6.2-6.2,16.4,0,22.6c3,3,7,4.7,11.3,4.7l0,0c4.3,0,8.3-1.7,11.3-4.7c2.1-2.1,51.2-50.6,76.3-25.4c1.6,1.6,1.6,4.1,0,5.7
		c-1.6,1.6-4.1,1.6-5.7,0c-16.2-16.2-52.4,12.9-65,25.4C217.2,275.9,211.1,278.4,204.7,278.4z"/>
	<path class="st6" d="M453.5,252.7c-1,0-2-0.4-2.8-1.2L343.2,144.2c-1.6-1.6-1.6-4.1,0-5.7s4.1-1.6,5.7,0l107.4,107.4
		c1.6,1.6,1.6,4.1,0,5.7C455.5,252.3,454.5,252.7,453.5,252.7z"/>
	<path class="st6" d="M493,235.8c-1,0-2-0.4-2.8-1.2l-130-130c-1.6-1.6-1.6-4.1,0-5.7c1.6-1.6,4.1-1.6,5.7,0l130,130
		c1.6,1.6,1.6,4.1,0,5.7C495.1,235.4,494.1,235.8,493,235.8z"/>
	<path class="st6" d="M346.1,145.3c-1,0-2-0.4-2.8-1.2c-1.6-1.6-1.6-4.1,0-5.7l17-17c1.6-1.6,4.1-1.6,5.7,0s1.6,4.1,0,5.7l-17,17
		C348.1,144.9,347.1,145.3,346.1,145.3z"/>
	<path class="st6" d="M453.5,252.7c-1,0-2-0.4-2.8-1.2c-1.6-1.6-1.6-4.1,0-5.7l17-17c1.6-1.6,4.1-1.6,5.7,0s1.6,4.1,0,5.7l-17,17
		C455.5,252.3,454.5,252.7,453.5,252.7z"/>
	<path class="st6" d="M363,105.8c-1,0-2-0.4-2.8-1.2c-1.6-1.6-1.6-4.1,0-5.7l93.3-93.3c1.6-1.6,4.1-1.6,5.7,0s1.6,4.1,0,5.7
		l-93.3,93.3C365.1,105.4,364,105.8,363,105.8z"/>
	<path class="st6" d="M493,235.8c-1,0-2-0.4-2.8-1.2c-1.6-1.6-1.6-4.1,0-5.7l14.8-14.7c1.6-1.6,4.1-1.6,5.7,0c1.6,1.6,1.6,4.1,0,5.7
		l-14.8,14.7C495.1,235.4,494.1,235.8,493,235.8z"/>
	<path class="st6" d="M57.8,264c-1,0-2-0.4-2.8-1.2c-1.6-1.6-1.6-4.1,0-5.7l107.4-107.4c1.6-1.6,4.1-1.6,5.7,0s1.6,4.1,0,5.7
		L60.7,262.8C59.8,263.6,58.8,264,57.8,264z"/>
	<path class="st6" d="M18.2,247.1c-1,0-2-0.4-2.8-1.2c-1.6-1.6-1.6-4.1,0-5.7l130-130c1.6-1.6,4.1-1.6,5.7,0s1.6,4.1,0,5.7l-130,130
		C20.2,246.7,19.2,247.1,18.2,247.1z"/>
	<path class="st6" d="M57.8,264c-1,0-2-0.4-2.8-1.2l-17-17c-1.6-1.6-1.6-4.1,0-5.7c1.6-1.6,4.1-1.6,5.7,0l17,17
		c1.6,1.6,1.6,4.1,0,5.7C59.8,263.6,58.8,264,57.8,264z"/>
	<path class="st6" d="M165.2,156.6c-1,0-2-0.4-2.8-1.2l-17-17c-1.6-1.6-1.6-4.1,0-5.7c1.6-1.6,4.1-1.6,5.7,0l17,17
		c1.6,1.6,1.6,4.1,0,5.7C167.2,156.2,166.2,156.6,165.2,156.6z"/>
	<path class="st6" d="M18.2,247.1c-1,0-2-0.4-2.8-1.2L1.3,231.8c-1.6-1.6-1.6-4.1,0-5.7c1.6-1.6,4.1-1.6,5.7,0l14.1,14.1
		c1.6,1.6,1.6,4.1,0,5.7C20.2,246.7,19.2,247.1,18.2,247.1z"/>
	<path class="st6" d="M148.2,117.1c-1,0-2-0.4-2.8-1.2L40.8,11.3c-1.6-1.6-1.6-4.1,0-5.7s4.1-1.6,5.7,0l104.6,104.6
		c1.6,1.6,1.6,4.1,0,5.7C150.3,116.7,149.2,117.1,148.2,117.1z"/>
	<path class="st6" d="M11.8,212c-3.2,0-6.2-1.2-8.5-3.5c-4.7-4.7-4.7-12.3,0-17c4.5-4.5,12.4-4.5,17,0c4.7,4.7,4.7,12.3,0,17
		C18,210.8,15,212,11.8,212z M11.8,196c-1.1,0-2.1,0.4-2.8,1.2c-1.6,1.6-1.6,4.1,0,5.7c1.5,1.5,4.1,1.5,5.6,0c1.6-1.6,1.6-4.1,0-5.7
		C13.9,196.4,12.9,196,11.8,196z"/>
	<path class="st6" d="M298,470.4c-1,0-2-0.4-2.8-1.2l-31.1-31.1c-1.6-1.6-1.6-4.1,0-5.7c1.6-1.6,4.1-1.6,5.7,0l31.1,31.1
		c1.6,1.6,1.6,4.1,0,5.7C300.1,470,299,470.4,298,470.4z"/>
</g>
</svg>
