<?xml version="1.0" encoding="utf-8"?>
<!-- Generator: Adobe Illustrator 22.0.1, SVG Export Plug-In . SVG Version: 6.00 Build 0)  -->
<svg version="1.1" id="Capa_1" xmlns="http://www.w3.org/2000/svg" xmlns:xlink="http://www.w3.org/1999/xlink" x="0px" y="0px"
	 viewBox="0 0 511.6 511.6" style="enable-background:new 0 0 511.6 511.6;" xml:space="preserve">
<style type="text/css">
	.st0{fill:#21AFED;}
	.st1{fill:#86CEEF;}
	.st2{fill:#FFFFFF;}
	.st3{fill:#FCFFFF;}
	.st4{fill:#59BAFF;}
	.st5{fill:#6289D6;}
	.st6{fill:#0079AD;}
</style>
<path class="st0" d="M428.6,395.2c-6.2-2.3-14.6-5.4-24-8.9l-148-47.1l-147.5,47c-9.5,3.6-18,6.7-24.2,9c-32,11.9-48,24-48,56
	s0,56,0,56h439.7c0,0,0-24,0-56S460.6,407.2,428.6,395.2z"/>
<path class="st1" d="M412.5,395.2c-4.7-1.8-17.2-5.5-24-8l-6.5-8.1l22.2,7.1c9.5,3.6,18,6.7,24.2,9c32,11.9,48,24,48,56s0,56,0,56
	h-16c0,0,0-24,0-56S444.5,407.2,412.5,395.2z"/>
<path class="st1" d="M100.9,395.3c4.7-1.8,17.2-5.5,24-8l6.5-8.1l-22.2,7.1c-9.5,3.6-18,6.7-24.2,9c-32,11.9-48,24-48,56s0,56,0,56
	h16c0,0,0-24,0-56C52.9,419.3,68.9,407.3,100.9,395.3z"/>
<g>
	<polygon class="st2" points="256.7,507.2 245.6,507.2 188.8,405 256.6,363.2 	"/>
	<polygon class="st2" points="256.7,507.2 267.9,507.2 324.7,405 256.9,363.2 	"/>
	<polygon class="st2" points="188.8,405 164.7,361.6 164.7,345.5 256.6,363.2 	"/>
	<polygon class="st2" points="324.5,405 348.6,361.6 348.6,345.5 256.6,363.2 	"/>
</g>
<polygon class="st1" points="256.6,307.3 164.7,307.3 164.7,345.5 256.6,363.2 348.6,345.5 348.6,307.3 "/>
<path class="st2" d="M412.5,159.4c0-86.1-69.8-155.9-155.9-155.9S100.7,73.3,100.7,159.4c0,51.7,25.2,97.3,63.9,125.7v22.2h183.9
	v-22.2C387.3,256.8,412.5,211.1,412.5,159.4z"/>
<path class="st3" d="M124.7,159.4c0-82,63.4-149.1,143.9-155.3c-4-0.3-7.9-0.6-12-0.6c-86.1,0-155.9,69.8-155.9,155.9
	c0,51.7,25.2,97.3,63.9,125.7l0,0C137.1,251.4,124.7,211,124.7,159.4z"/>
<path class="st1" d="M388,159.4c0-82-63.4-149.1-143.9-155.3c4-0.3,7.9-0.6,12-0.6C342.2,3.5,412,73.3,412,159.4
	c0,51.7-25.2,97.3-63.9,125.7l0,0C375.6,251.4,388,211,388,159.4z"/>
<g>
	<circle class="st3" cx="216.6" cy="171.4" r="20"/>
	<circle class="st3" cx="296.6" cy="171.4" r="20"/>
	<polygon class="st1" points="276.6,299.3 236.6,299.3 236.6,259.3 256.6,243.4 276.6,259.3 	"/>
</g>
<polygon class="st4" points="290.4,384 256.6,363.2 223.1,383.9 236.6,411.2 276.6,411.2 "/>
<polygon class="st1" points="226.2,390 236.6,411.2 244.6,411.2 232.3,386.2 "/>
<polygon class="st1" points="287.1,390 276.6,411.2 268.6,411.2 281,386.2 "/>
<polygon class="st4" points="290.4,466.4 267.9,507.2 245.6,507.2 222.9,466.4 244.6,411.2 268.6,411.2 "/>
<polygon class="st1" points="252.6,411.2 244.6,411.2 222.9,466.4 227.7,475.2 "/>
<polygon class="st1" points="260.6,411.2 268.6,411.2 290.4,466.4 285.5,475.2 "/>
<g>
	<polygon class="st5" points="172.7,427.2 124.7,387.2 156.7,347.3 245.6,507.2 233,507.2 164.7,451.2 	"/>
	<polygon class="st5" points="340.6,427.2 388.5,387.2 356.5,347.3 267.6,507.2 280.3,507.2 348.6,451.2 	"/>
</g>
<g>
	<polygon class="st1" points="172.7,427.2 124.7,387.2 156.7,347.3 245.6,507.2 233,507.2 164.7,451.2 	"/>
	<polygon class="st1" points="340.6,427.2 388.5,387.2 356.5,347.3 267.6,507.2 280.3,507.2 348.6,451.2 	"/>
	<rect x="164.7" y="299.3" class="st1" width="183.9" height="8"/>
</g>
<polygon class="st1" points="287.3,390.1 290.4,384 256.6,363.2 223.1,383.9 226.2,390 256.6,371.2 "/>
<polygon class="st0" points="180.7,307.3 164.7,307.3 164.7,345.5 180.7,348.6 "/>
<polygon class="st0" points="332.6,307.3 348.6,307.3 348.6,345.5 332.6,348.6 "/>
<g>
	<path class="st6" d="M164.7,289.4c-0.8,0-1.6-0.2-2.4-0.8c-41.1-30-65.6-78.3-65.6-129.3c0-88.1,71.8-159.8,159.9-159.8
		c88.2,0,159.9,71.7,159.9,159.9c0,51-24.5,99.3-65.6,129.2c-1.8,1.3-4.3,0.9-5.6-0.9s-0.9-4.3,0.9-5.6
		c39-28.5,62.3-74.4,62.3-122.8c0-83.7-68.1-151.8-151.9-151.8S104.7,75.6,104.7,159.4c0,48.4,23.3,94.3,62.3,122.8
		c1.8,1.3,2.2,3.8,0.9,5.6C167.1,288.8,165.9,289.4,164.7,289.4z"/>
	<path class="st6" d="M476.5,511.2H36.8c-2.2,0-4-1.8-4-4v-56c0-34.3,17.8-47.5,50.6-59.7l8.3-3.1c4.7-1.7,10.1-3.7,15.9-5.9
		c2.1-0.8,4.4,0.3,5.1,2.3c0.8,2.1-0.3,4.4-2.3,5.2c-5.8,2.2-11.2,4.2-15.9,5.9l-8.3,3.1c-30.8,11.5-45.4,22.3-45.4,52.3v52h431.7
		v-52c0-30-14.6-40.7-45.4-52.2l-9-3.4c-4.5-1.7-9.5-3.5-14.9-5.5c-2.1-0.8-3.1-3.1-2.3-5.1c0.8-2.1,3.1-3.1,5.2-2.3
		c5.4,2,10.4,3.9,14.9,5.5l9.1,3.4c32.8,12.3,50.6,25.4,50.6,59.7v56C480.5,509.3,478.7,511.2,476.5,511.2z"/>
	<path class="st6" d="M164.7,334.9c-2.2,0-4-1.8-4-4v-45.5c0-2.2,1.8-4,4-4s4,1.8,4,4v45.5C168.7,333.2,166.9,334.9,164.7,334.9z"/>
	<path class="st6" d="M348.6,335.3c-2.2,0-4-1.8-4-4v-45.9c0-2.2,1.8-4,4-4s4,1.8,4,4v45.9C352.6,333.5,350.8,335.3,348.6,335.3z"/>
	<path class="st6" d="M348.6,311.3H164.7c-2.2,0-4-1.8-4-4s1.8-4,4-4h183.9c2.2,0,4,1.8,4,4S350.8,311.3,348.6,311.3z"/>
	<path class="st6" d="M156.7,335.3c-2.1,0-3.9-1.7-4-3.8c-0.1-2.2,1.6-4.1,3.8-4.2l199.9-8c2.1-0.2,4.1,1.6,4.2,3.8
		c0.1,2.2-1.6,4.1-3.8,4.2l-199.9,8C156.8,335.3,156.7,335.3,156.7,335.3z"/>
	<path class="st6" d="M256.6,367.2c-0.2,0-0.5,0-0.8-0.1l-83.9-16c-2.2-0.4-3.6-2.5-3.2-4.7s2.5-3.6,4.7-3.2l83.9,16
		c2.2,0.4,3.6,2.5,3.2,4.7C260.2,365.9,258.5,367.2,256.6,367.2z"/>
	<path class="st6" d="M256.6,367.2c-1.9,0-3.6-1.3-3.9-3.2c-0.4-2.2,1-4.3,3.2-4.7l83.9-16c2.2-0.4,4.3,1,4.7,3.2s-1,4.3-3.2,4.7
		l-83.9,16C257.1,367.2,256.9,367.2,256.6,367.2z"/>
	<path class="st6" d="M276.6,415.2h-40c-1.5,0-2.9-0.9-3.6-2.2l-8-16c-1-2-0.2-4.4,1.8-5.4s4.4-0.2,5.4,1.8l6.9,13.8h35l6.9-13.8
		c1-2,3.4-2.8,5.4-1.8s2.8,3.4,1.8,5.4l-8,16C279.5,414.3,278.1,415.2,276.6,415.2z"/>
	<path class="st6" d="M228.6,455.2c-0.5,0-1-0.1-1.5-0.3c-2-0.8-3-3.2-2.2-5.2l16-40c0.8-2.1,3.2-3.1,5.2-2.2c2,0.8,3,3.2,2.2,5.2
		l-16,40C231.7,454.2,230.2,455.2,228.6,455.2z"/>
	<path class="st6" d="M284.6,455.2c-1.6,0-3.1-1-3.7-2.5l-16-40c-0.8-2,0.2-4.4,2.2-5.2c2-0.8,4.4,0.2,5.2,2.2l16,40
		c0.8,2-0.2,4.4-2.2,5.2C285.6,455.1,285.1,455.2,284.6,455.2z"/>
	<path class="st6" d="M213.2,495.2c-0.9,0-1.8-0.3-2.5-0.9l-48.6-40c-1.3-1.1-1.8-2.8-1.2-4.4l7.1-21.4l-45.9-38.2
		c-1.7-1.4-1.9-3.9-0.6-5.6l32-40c1.4-1.7,3.9-2,5.6-0.6s2,3.9,0.6,5.6l-29.5,36.9l45,37.5c1.3,1.1,1.8,2.8,1.2,4.3l-7.1,21.4
		l46.4,38.2c1.7,1.4,1.9,3.9,0.5,5.6C215.5,494.7,214.4,495.2,213.2,495.2z"/>
	<path class="st6" d="M236.6,495.2c-1.4,0-2.8-0.7-3.5-2.1l-79.9-143.9c-1.1-1.9-0.4-4.4,1.6-5.4c1.9-1.1,4.4-0.4,5.4,1.6
		l79.9,143.9c1.1,1.9,0.4,4.4-1.6,5.4C238,495,237.3,495.2,236.6,495.2z"/>
	<path class="st6" d="M300,495.2c-1.2,0-2.3-0.5-3.1-1.5c-1.4-1.7-1.2-4.2,0.5-5.6l46.4-38.2l-7-21.3c-0.5-1.6,0-3.3,1.2-4.3
		l45-37.5l-29.5-36.9c-1.4-1.7-1.1-4.2,0.6-5.6c1.7-1.4,4.2-1.1,5.6,0.6l32,40c1.4,1.7,1.1,4.2-0.6,5.6l-45.9,38.1l7.1,21.4
		c0.5,1.6,0,3.3-1.2,4.4l-48.6,40C301.8,494.8,300.9,495.2,300,495.2z"/>
	<path class="st6" d="M276.6,495.2c-0.7,0-1.3-0.2-1.9-0.5c-1.9-1.1-2.6-3.5-1.6-5.4L353,345.4c1.1-1.9,3.5-2.6,5.4-1.6
		c1.9,1.1,2.6,3.5,1.6,5.4L280.1,493C279.4,494.5,278,495.2,276.6,495.2z"/>
	<path class="st6" d="M204.7,399.2c-1.3,0-2.7-0.7-3.4-1.9c-1.2-1.9-0.6-4.3,1.3-5.5l52-32c1.9-1.2,4.3-0.6,5.5,1.3s0.6,4.3-1.3,5.5
		l-52,32C206.1,399,205.4,399.2,204.7,399.2z"/>
	<path class="st6" d="M308.6,399.2c-0.7,0-1.4-0.2-2.1-0.6l-52-32c-1.9-1.2-2.5-3.6-1.3-5.5s3.6-2.5,5.5-1.3l52,32
		c1.9,1.2,2.5,3.6,1.3,5.5C311.2,398.5,309.9,399.2,308.6,399.2z"/>
	<path class="st6" d="M256.6,495.2c-2.2,0-4-1.8-4-4v-56c0-2.2,1.8-4,4-4s4,1.8,4,4v56C260.6,493.5,258.8,495.2,256.6,495.2z"/>
	<path class="st6" d="M236.6,295.3c-2.2,0-4-1.8-4-4v-32c0-2.2,1.8-4,4-4s4,1.8,4,4v32C240.6,293.5,238.8,295.3,236.6,295.3z"/>
	<path class="st6" d="M276.6,295.3c-2.2,0-4-1.8-4-4v-32c0-2.2,1.8-4,4-4s4,1.8,4,4v32C280.6,293.5,278.8,295.3,276.6,295.3z"/>
	<path class="st6" d="M236.6,263.3c-1.2,0-2.3-0.5-3.1-1.5c-1.4-1.7-1.1-4.2,0.6-5.6l20-16c1.7-1.4,4.2-1.1,5.6,0.6s1.1,4.2-0.6,5.6
		l-20,16C238.4,263,237.5,263.3,236.6,263.3z"/>
	<path class="st6" d="M276.6,263.3c-0.9,0-1.8-0.3-2.5-0.9l-20-16c-1.7-1.4-2-3.9-0.6-5.6s3.9-2,5.6-0.6l20,16
		c1.7,1.4,2,3.9,0.6,5.6C278.9,262.8,277.8,263.3,276.6,263.3z"/>
	<path class="st6" d="M276.6,239.4c-2.2,0-4-1.8-4-4v-64c0-2.2,1.8-4,4-4s4,1.8,4,4v64C280.6,237.5,278.8,239.4,276.6,239.4z"/>
	<path class="st6" d="M236.6,239.4c-2.2,0-4-1.8-4-4v-64c0-2.2,1.8-4,4-4s4,1.8,4,4v64C240.6,237.5,238.8,239.4,236.6,239.4z"/>
	<path class="st6" d="M216.6,195.4c-13.2,0-24-10.8-24-24s10.8-24,24-24s24,10.8,24,24c0,2.2-1.8,4-4,4s-4-1.8-4-4
		c0-8.8-7.2-16-16-16s-16,7.2-16,16s7.2,16,16,16c2.2,0,4,1.8,4,4C220.6,193.6,218.9,195.4,216.6,195.4z"/>
	<path class="st6" d="M296.6,195.4c-2.2,0-4-1.8-4-4s1.8-4,4-4c8.8,0,16-7.2,16-16s-7.2-16-16-16s-16,7.2-16,16c0,2.2-1.8,4-4,4
		s-4-1.8-4-4c0-13.2,10.8-24,24-24s24,10.8,24,24C320.6,184.6,309.8,195.4,296.6,195.4z"/>
	<path class="st6" d="M296.6,195.4h-4c-2.2,0-4-1.8-4-4s1.8-4,4-4h4c2.2,0,4,1.8,4,4C300.6,193.6,298.8,195.4,296.6,195.4z"/>
	<path class="st6" d="M220.6,195.4h-4c-2.2,0-4-1.8-4-4s1.8-4,4-4h4c2.2,0,4,1.8,4,4C224.6,193.6,222.9,195.4,220.6,195.4z"/>
	<path class="st6" d="M260.6,195.4h-8c-2.2,0-4-1.8-4-4s1.8-4,4-4h8c2.2,0,4,1.8,4,4C264.6,193.6,262.8,195.4,260.6,195.4z"/>
</g>
</svg>
