<?xml version="1.0" encoding="utf-8"?>
<!-- Generator: Adobe Illustrator 22.0.1, SVG Export Plug-In . SVG Version: 6.00 Build 0)  -->
<svg version="1.1" id="Capa_1" xmlns="http://www.w3.org/2000/svg" xmlns:xlink="http://www.w3.org/1999/xlink" x="0px" y="0px"
	 viewBox="0 0 511.6 511.6" style="enable-background:new 0 0 511.6 511.6;" xml:space="preserve">
<style type="text/css">
	.st0{fill:#FFFFFF;}
	.st1{fill:#86CEEF;}
	.st2{fill:#21AFED;}
	.st3{fill:#0079AD;}
</style>
<path class="st0" d="M36.7,245.1h40c-8.8,0-16,7.2-16,16s7.2,16,16,16h24c-8.8,0-16,7.2-16,16s15.2,16,24,16h-16
	c-8.8,0-16,7.2-16,16s7.2,16,16,16h263.8c8.8,0,16-7.2,16-16s-7.2-16-16-16h111.9c8.8,0,16-7.2,16-16s-7.2-16-16-16h-40
	c8.8,0,16-7.2,16-16s-7.2-16-16-16h-48c8.8,0,16-7.2,16-16s-7.2-16-16-16h103.9c8.8,0,16-7.2,16-16s-7.2-16-16-16h-26.7
	c8.8,0,16-7.2,16-16s-7.2-16-16-16h-25.3c8.8,0,16-7.2,16-16s-7.2-16-16-16h60c8.8,0,16-7.2,16-16s-7.2-16-16-16h-24
	c8.8,0,16-7.2,16-16s-7.2-16-16-16h-40c8.8,0,16-7.2,16-16s-7.2-16-16-16H108.5c-8.8,0-16,7.2-16,16s7.2,16,16,16h-40
	c-8.8,0-16,7.2-16,16s7.2,16,16,16h-16c-8.8,0-16,7.2-16,16s7.2,16,16,16h40c-8.8,0-16,7.2-16,16s7.2,16,16,16h-16
	c-8.8,0-16,7.2-16,16s7.2,16,16,16h48c-8.8,0-16,7.2-16,16s7.2,16,16,16H36.6c-8.8,0-16,7.2-16,16C20.7,237.9,27.9,245.1,36.7,245.1
	z"/>
<polygon class="st1" points="181.5,329.8 76.7,484.9 4.8,484.9 4.8,397 116.7,237.1 "/>
<polygon class="st2" points="124.7,248.5 116.7,237.1 4.8,397 4.8,420.2 "/>
<polygon class="st2" points="508.4,484.9 76.7,484.9 292.6,165.2 "/>
<polygon class="st1" points="292.6,165.2 76.7,484.9 92.7,484.9 300.6,177 "/>
<path class="st1" d="M192.4,117.2c0,13.2-10.7,24-24,24c-13.2,0-24-10.7-24-24c0-13.2,10.7-24,24-24S192.4,103.9,192.4,117.2z"/>
<polygon class="st1" points="292.6,165.2 284.6,177 492.4,484.9 508.4,484.9 "/>
<g>
	<polygon class="st2" points="116.7,237.1 108.7,248.5 165.5,329.8 60.7,484.9 76.7,484.9 181.5,329.8 	"/>
	<rect x="292.6" y="53.2" class="st2" width="79.9" height="24"/>
	<polygon class="st2" points="436.5,101.2 348.5,101.2 372.5,77.2 436.5,77.2 420.5,89.2 	"/>
</g>
<g>
	<rect x="292.6" y="53.2" class="st1" width="79.9" height="8"/>
	<polygon class="st1" points="425.8,85.2 364.5,85.2 372.5,77.2 436.5,77.2 	"/>
</g>
<polygon class="st0" points="236,248.9 292.6,165.2 346.5,245.1 316.5,245.1 284.6,261.1 "/>
<polygon class="st0" points="116.7,237.1 77.5,293.1 116.7,301.7 155.9,293.1 "/>
<g>
	<path class="st3" d="M4.8,401c-0.8,0-1.6-0.2-2.3-0.7c-1.8-1.3-2.2-3.8-1-5.6l111.9-159.9c1.3-1.8,3.8-2.2,5.6-1
		c1.8,1.3,2.2,3.8,1,5.6L8,399.3C7.3,400.4,6,401,4.8,401z"/>
	<path class="st3" d="M76.7,488.9c-0.8,0-1.5-0.2-2.2-0.7c-1.8-1.2-2.3-3.7-1.1-5.5l215.9-319.8c1.2-1.8,3.7-2.3,5.5-1.1
		s2.3,3.7,1.1,5.5L80,487.2C79.3,488.3,78,488.9,76.7,488.9z"/>
	<path class="st3" d="M508.4,488.9c-1.3,0-2.5-0.6-3.3-1.8L289.2,167.3c-1.2-1.8-0.8-4.3,1.1-5.5c1.8-1.2,4.3-0.8,5.5,1.1
		l215.9,319.8c1.2,1.8,0.8,4.3-1.1,5.5C510,488.7,509.2,488.9,508.4,488.9z"/>
	<path class="st3" d="M172.6,321c-1.3,0-2.5-0.6-3.3-1.7l-55.9-79.9c-1.3-1.8-0.8-4.3,1-5.6c1.8-1.3,4.3-0.8,5.6,1l55.9,79.9
		c1.3,1.8,0.8,4.3-1,5.6C174.2,320.8,173.4,321,172.6,321z"/>
	<path class="st3" d="M436.5,488.9c-1.3,0-2.6-0.7-3.4-1.9l-40-63.9c-1.2-1.9-0.6-4.3,1.3-5.5c1.9-1.2,4.3-0.6,5.5,1.3l40,63.9
		c1.2,1.9,0.6,4.3-1.3,5.5C437.9,488.7,437.2,488.9,436.5,488.9z"/>
	<path class="st3" d="M148.7,488.9c-0.7,0-1.5-0.2-2.1-0.6c-1.9-1.2-2.4-3.6-1.3-5.5l40-63.9c1.2-1.9,3.6-2.4,5.5-1.3
		c1.9,1.2,2.4,3.6,1.3,5.5l-40,63.9C151.3,488.3,150,488.9,148.7,488.9z"/>
	<path class="st3" d="M284.6,265.1c-0.3,0-0.6,0-1-0.1l-48.5-12.2c-2.1-0.5-3.4-2.7-2.9-4.9c0.5-2.1,2.7-3.4,4.8-2.9l48.5,12.2
		c2.1,0.5,3.4,2.7,2.9,4.9C288,263.9,286.4,265.1,284.6,265.1z"/>
	<path class="st3" d="M284.6,265.1c-1.5,0-2.9-0.8-3.6-2.2c-1-2-0.2-4.4,1.8-5.4l32-16c0.6-0.3,1.2-0.4,1.8-0.4h30c2.2,0,4,1.8,4,4
		s-1.8,4-4,4h-29l-31.1,15.6C285.8,265,285.2,265.1,284.6,265.1z"/>
	<path class="st3" d="M292.6,153.2c-2.2,0-4-1.8-4-4v-112c0-2.2,1.8-4,4-4s4,1.8,4,4v111.9C296.6,151.4,294.8,153.2,292.6,153.2z"/>
	<path class="st3" d="M372.5,57.2h-79.9c-2.2,0-4-1.8-4-4s1.8-4,4-4h79.9c2.2,0,4,1.8,4,4C376.5,55.4,374.7,57.2,372.5,57.2z"/>
	<path class="st3" d="M372.5,81.2h-79.9c-2.2,0-4-1.8-4-4s1.8-4,4-4h79.9c2.2,0,4,1.8,4,4C376.5,79.4,374.7,81.2,372.5,81.2z"/>
	<path class="st3" d="M372.5,81.2c-2.2,0-4-1.8-4-4v-24c0-2.2,1.8-4,4-4s4,1.8,4,4v24C376.5,79.4,374.7,81.2,372.5,81.2z"/>
	<path class="st3" d="M436.5,81.2h-56c-2.2,0-4-1.8-4-4s1.8-4,4-4h56c2.2,0,4,1.8,4,4C440.5,79.4,438.7,81.2,436.5,81.2z"/>
	<path class="st3" d="M436.5,105.2h-87.9c-2.2,0-4-1.8-4-4s1.8-4,4-4h87.9c2.2,0,4,1.8,4,4S438.7,105.2,436.5,105.2z"/>
	<path class="st3" d="M436.5,105.2c-0.8,0-1.7-0.3-2.4-0.8l-16-12c-1-0.8-1.6-1.9-1.6-3.2s0.6-2.4,1.6-3.2l16-12
		c1.8-1.3,4.3-1,5.6,0.8s1,4.3-0.8,5.6l-11.7,8.8l11.7,8.8c1.8,1.3,2.1,3.8,0.8,5.6C438.9,104.6,437.7,105.2,436.5,105.2z"/>
	<path class="st3" d="M348.5,105.2c-1,0-2-0.4-2.8-1.2c-1.6-1.6-1.6-4.1,0-5.7l24-24c1.6-1.6,4.1-1.6,5.7,0c1.6,1.6,1.6,4.1,0,5.7
		l-24,24C350.6,104.8,349.5,105.2,348.5,105.2z"/>
	<path class="st3" d="M116.7,305.7c-0.3,0-0.6,0-0.9-0.1l-39.2-8.7c-2.2-0.5-3.5-2.6-3-4.8c0.5-2.2,2.6-3.5,4.8-3l38.3,8.5l38.3-8.5
		c2.1-0.5,4.3,0.9,4.8,3c0.5,2.2-0.9,4.3-3,4.8l-39.2,8.7C117.3,305.7,117,305.7,116.7,305.7z"/>
	<path class="st3" d="M168.4,145.2c-15.4,0-28-12.6-28-28s12.6-28,28-28s28,12.6,28,28S183.9,145.2,168.4,145.2z M168.4,97.2
		c-11,0-20,9-20,20s9,20,20,20s20-9,20-20S179.5,97.2,168.4,97.2z"/>
	<path class="st3" d="M168.4,81.2c-2.2,0-4-1.8-4-4v-24c0-2.2,1.8-4,4-4s4,1.8,4,4v24C172.4,79.4,170.6,81.2,168.4,81.2z"/>
	<path class="st3" d="M168.4,185.1c-2.2,0-4-1.8-4-4v-24c0-2.2,1.8-4,4-4s4,1.8,4,4v24C172.4,183.4,170.6,185.1,168.4,185.1z"/>
	<path class="st3" d="M148.4,86.6c-1.4,0-2.7-0.7-3.5-2l-12-20.8c-1.1-1.9-0.4-4.4,1.5-5.5s4.4-0.5,5.5,1.5l12,20.8
		c1.1,1.9,0.4,4.4-1.5,5.5C149.8,86.4,149.1,86.6,148.4,86.6z"/>
	<path class="st3" d="M200.4,176.6c-1.4,0-2.7-0.7-3.5-2l-12-20.8c-1.1-1.9-0.4-4.4,1.5-5.5s4.4-0.5,5.5,1.5l12,20.8
		c1.1,1.9,0.4,4.4-1.5,5.5C201.8,176.4,201.1,176.6,200.4,176.6z"/>
	<path class="st3" d="M133.8,101.2c-0.7,0-1.4-0.2-2-0.5l-20.8-12c-1.9-1.1-2.6-3.5-1.5-5.5c1.1-1.9,3.6-2.6,5.5-1.5l20.8,12
		c1.9,1.1,2.6,3.5,1.5,5.5C136.5,100.5,135.2,101.2,133.8,101.2z"/>
	<path class="st3" d="M223.8,153.2c-0.7,0-1.4-0.2-2-0.5l-20.8-12c-1.9-1.1-2.6-3.5-1.5-5.5c1.1-1.9,3.5-2.6,5.5-1.5l20.8,12
		c1.9,1.1,2.6,3.5,1.5,5.5C226.5,152.4,225.2,153.2,223.8,153.2z"/>
	<path class="st3" d="M104.5,121.2c-2.2,0-4-1.8-4-4s1.8-4,4-4h24c2.2,0,4,1.8,4,4s-1.8,4-4,4H104.5z"/>
	<path class="st3" d="M232.4,121.2L232.4,121.2h-24c-2.2,0-4-1.8-4-4s1.8-4,4-4l0,0h24c2.2,0,4,1.8,4,4S234.6,121.2,232.4,121.2z"/>
	<path class="st3" d="M113.1,153.2c-1.4,0-2.7-0.7-3.5-2c-1.1-1.9-0.4-4.4,1.5-5.5l20.8-12c1.9-1.1,4.4-0.5,5.5,1.5
		c1.1,1.9,0.4,4.4-1.5,5.5l-20.8,12C114.4,153,113.7,153.2,113.1,153.2z"/>
	<path class="st3" d="M203.1,101.2c-1.4,0-2.7-0.7-3.5-2c-1.1-1.9-0.4-4.4,1.5-5.5l20.8-12c1.9-1.1,4.4-0.4,5.5,1.5s0.4,4.4-1.5,5.5
		l-20.8,12C204.4,101,203.7,101.2,203.1,101.2z"/>
	<path class="st3" d="M136.5,176.6c-0.7,0-1.4-0.2-2-0.5c-1.9-1.1-2.6-3.5-1.5-5.5l12-20.8c1.1-1.9,3.5-2.6,5.5-1.5
		c1.9,1.1,2.6,3.5,1.5,5.5l-12,20.8C139.2,175.9,137.8,176.6,136.5,176.6z"/>
	<path class="st3" d="M188.4,86.6c-0.7,0-1.4-0.2-2-0.5c-1.9-1.1-2.6-3.5-1.5-5.5l12-20.8c1.1-1.9,3.5-2.6,5.5-1.5
		c1.9,1.1,2.6,3.5,1.5,5.5l-12,20.8C191.1,85.8,189.8,86.6,188.4,86.6z"/>
	<path class="st3" d="M395.5,187.1c-2,0-3.7-1.4-4-3.4c-1.7-12.4-19.8-12.5-20-12.5c-2.2,0-4-1.8-4-4s1.8-4,4-4
		c8.7,0,25.8,4.1,27.9,19.4c0.3,2.2-1.2,4.2-3.4,4.5C395.9,187.1,395.7,187.1,395.5,187.1z"/>
	<path class="st3" d="M395.5,187.1c-0.4,0-0.9-0.1-1.4-0.2c-2.1-0.7-3.2-3-2.4-5.1c4.1-11.3,24.3-17.8,26.6-18.5
		c2.1-0.6,4.3,0.5,5,2.7c0.6,2.1-0.5,4.3-2.7,5c-7.2,2.2-19.3,7.8-21.4,13.5C398.7,186.1,397.1,187.1,395.5,187.1z"/>
	<path class="st3" d="M178.8,241.5c-1.7,0-3.3-1.1-3.8-2.8c-2.3-7-10.4-5.5-11.3-5.3c-2.1,0.5-4.3-0.9-4.8-3s0.9-4.3,3-4.8
		c5.6-1.3,17-0.7,20.7,10.7c0.7,2.1-0.5,4.3-2.6,5C179.7,241.4,179.2,241.5,178.8,241.5z"/>
	<path class="st3" d="M178.8,241.5c-0.2,0-0.4,0-0.6-0.1c-2.2-0.4-3.7-2.4-3.3-4.6c1.4-8.5,15.2-10.8,19.5-11.3
		c2.2-0.3,4.2,1.3,4.4,3.5c0.3,2.2-1.3,4.2-3.5,4.5c-6.4,0.8-12.3,3.3-12.5,4.7C182.5,240.1,180.8,241.5,178.8,241.5z"/>
</g>
</svg>
