<?xml version="1.0" encoding="utf-8"?>
<!-- Generator: Adobe Illustrator 22.0.1, SVG Export Plug-In . SVG Version: 6.00 Build 0)  -->
<svg version="1.1" id="Capa_1" xmlns="http://www.w3.org/2000/svg" xmlns:xlink="http://www.w3.org/1999/xlink" x="0px" y="0px"
	 viewBox="0 0 511.9 511.9" style="enable-background:new 0 0 511.9 511.9;" xml:space="preserve">
<style type="text/css">
	.st0{fill:#86CEEF;}
	.st1{fill:#2287FF;}
	.st2{fill:#FFFFFF;}
	.st3{fill:#21AFED;}
	.st4{opacity:0.68;}
	.st5{fill:#0079AD;}
</style>
<g>
	<polygon class="st0" points="429.9,86.2 429.9,63.6 469.4,24 475.1,41 	"/>
	<polygon class="st0" points="452.5,86.2 429.9,86.2 475.1,41 492.1,46.7 	"/>
</g>
<path id="SVGCleanerId_0_3_" class="st1" d="M420.2,296H224.3c-2.2,0-4-1.8-4-4s1.8-4,4-4h195.9c2.2,0,4,1.8,4,4
	S422.4,296,420.2,296z"/>
<path class="st2" d="M420.2,292c0,108.3-87.6,195.9-195.9,195.9S28.4,400.3,28.4,292S116,96.2,224.3,96.2S420.2,183.8,420.2,292z"/>
<path class="st1" d="M220.3,292c0,2.2,1.8,4,4,4H348c0-1.3,0.2-2.7,0.2-4c0-1.4-0.2-2.7-0.2-4H224.3
	C222.1,288,220.3,289.8,220.3,292z"/>
<path class="st3" d="M384.2,292c0,88.4-71.5,159.9-159.9,159.9S64.4,380.4,64.4,292s71.5-160,159.9-160S384.2,203.7,384.2,292z"/>
<path class="st0" d="M72.4,292c0-87,69.4-157.6,155.9-159.7c-1.3,0-2.6-0.2-4-0.2C135.9,132.1,64.4,203.7,64.4,292
	s71.5,159.9,159.9,159.9c1.4,0,2.7-0.2,4-0.2C141.8,449.6,72.4,379,72.4,292z"/>
<g>
	<path class="st2" d="M348.2,292c0,68.5-55.4,123.9-123.9,123.9s-124-55.4-124-123.9s55.5-124,124-124S348.2,223.6,348.2,292z"/>
	<path class="st2" d="M108.3,292c0-67.2,53.3-121.6,119.9-123.7c-1.3,0-2.6-0.2-4-0.2c-68.4-0.1-123.9,55.4-123.9,123.9
		s55.4,123.9,123.9,123.9c1.4,0,2.7-0.2,4-0.2C161.7,413.6,108.3,359.1,108.3,292z"/>
</g>
<path class="st3" d="M312.2,292c0,48.6-39.4,88-88,88s-88-39.4-88-88s39.4-88,88-88C272.9,204.1,312.2,243.4,312.2,292z"/>
<path class="st0" d="M144.3,292c0-47.3,37.2-85.7,84-87.8c-1.3-0.1-2.6-0.2-4-0.2c-48.6,0-88,39.3-88,88c0,48.6,39.4,88,88,88
	c1.4,0,2.7-0.1,4-0.2C181.5,377.6,144.3,339.2,144.3,292z"/>
<g>
	<path class="st2" d="M276.3,292c0,28.7-23.2,52-52,52s-52-23.3-52-52s23.3-52,52-52S276.3,263.2,276.3,292z"/>
	<path class="st2" d="M180.3,292c0-27.4,21.1-49.7,48-51.8c-1.3-0.1-2.6-0.2-4-0.2c-28.7,0-52,23.3-52,52c0,28.7,23.3,52,52,52
		c1.4,0,2.7-0.1,4-0.2C201.4,341.8,180.3,319.3,180.3,292z"/>
</g>
<path class="st3" d="M240.3,292c0,8.8-7.2,16-16,16s-16-7.2-16-16s7.2-16,16-16S240.3,283.1,240.3,292z"/>
<path class="st0" d="M216.3,292c0-7.4,5.1-13.6,12-15.4c-1.3-0.3-2.6-0.6-4-0.6c-8.8,0-16,7.2-16,16s7.2,16,16,16
	c1.4,0,2.7-0.2,4-0.6C221.4,305.6,216.3,299.4,216.3,292z"/>
<g>
	<path class="st0" d="M376.2,292c0-87-69.4-157.6-155.9-159.7c1.3,0,2.6-0.2,4-0.2c88.4,0,159.9,71.5,159.9,159.9
		s-71.5,159.9-159.9,159.9c-1.4,0-2.7-0.2-4-0.2C306.8,449.6,376.2,379,376.2,292z"/>
	<path class="st0" d="M304.2,292c0-47.3-37.2-85.7-84-87.8c1.3-0.1,2.6-0.2,4-0.2c48.6,0,88,39.3,88,88c0,48.6-39.4,88-88,88
		c-1.4,0-2.7-0.1-4-0.2C267,377.6,304.2,339.2,304.2,292z"/>
	<path class="st0" d="M232.3,292c0-7.4-5.1-13.6-12-15.4c1.3-0.3,2.6-0.6,4-0.6c8.8,0,16,7.2,16,16s-7.2,16-16,16
		c-1.4,0-2.7-0.2-4-0.6C227.2,305.6,232.3,299.4,232.3,292z"/>
</g>
<g class="st4">
	<path id="SVGCleanerId_0_2_" class="st5" d="M420.2,296H224.3c-2.2,0-4-1.8-4-4s1.8-4,4-4h195.9c2.2,0,4,1.8,4,4
		S422.4,296,420.2,296z"/>
</g>
<g>
	<path class="st0" d="M420.2,288H384c0,1.3,0.2,2.6,0.2,4c0,1.3-0.2,2.7-0.2,4h36.2c2.2,0,4-1.8,4-4S422.4,288,420.2,288z"/>
	<path class="st0" d="M345.5,288h-36c0.1,1.3,0.2,2.7,0.2,4c0,1.4-0.1,2.7-0.2,4h36c0-1.3,0.2-2.6,0.2-4S345.6,289.3,345.5,288z"/>
	<path class="st0" d="M276.1,288h-36.3c0.3,1.3,0.6,2.6,0.6,4s-0.2,2.7-0.6,4h36.3c0.1-1.3,0.2-2.7,0.2-4
		C276.3,290.6,276.2,289.3,276.1,288z"/>
</g>
<g>
	<path class="st5" d="M224.3,491.9c-110.2,0-199.9-89.7-199.9-199.9c0-110.3,89.7-200,199.9-200c45,0,87.5,14.6,122.9,42.2
		c1.7,1.4,2.1,3.9,0.7,5.6s-3.9,2.1-5.6,0.7c-34-26.4-74.8-40.5-118-40.5c-105.8,0-191.9,86.1-191.9,192
		c0,105.8,86.1,191.9,191.9,191.9S416.2,397.8,416.2,292c0-43.3-14.1-84.1-40.7-118.2c-1.4-1.7-1.1-4.3,0.7-5.6
		c1.7-1.4,4.2-1.1,5.6,0.7c27.7,35.4,42.4,78,42.4,123.1C424.2,402.2,334.5,491.9,224.3,491.9z"/>
	<path class="st5" d="M224.3,455.9c-43.8,0-85-17.1-115.9-48c-31-31-48-72.1-48-115.9s17.1-84.9,48-115.9c31-31,72.1-48,115.9-48
		l0,0c35.3,0,68.8,11,97.1,31.9c1.8,1.3,2.2,3.8,0.8,5.6c-1.3,1.8-3.8,2.2-5.6,0.8c-26.8-19.9-58.8-30.4-92.3-30.4l0,0
		c-41.6,0-80.8,16.2-110.2,45.7C84.6,211.3,68.4,250.4,68.4,292s16.2,80.8,45.7,110.3S182.7,448,224.4,448
		c86,0,155.9-70,155.9-155.9c0-33.6-10.5-65.6-30.4-92.6c-1.3-1.8-0.9-4.3,0.8-5.6c1.8-1.3,4.3-0.9,5.6,0.8c20.9,28.3,32,62,32,97.3
		C388.2,382.3,314.7,455.9,224.3,455.9z"/>
	<path class="st5" d="M224.3,419.9c-70.5,0-127.9-57.4-127.9-128c0-34.2,13.3-66.3,37.5-90.5s56.3-37.5,90.5-37.5l0,0
		c25.5,0,50.1,7.5,71.1,21.6c1.8,1.2,2.3,3.7,1.1,5.5s-3.7,2.3-5.6,1.1c-19.8-13.1-42.8-20.1-66.7-20.1l0,0
		c-32,0-62.1,12.5-84.8,35.1c-22.7,22.7-35.2,52.8-35.2,84.9c0,66.1,53.8,119.9,119.9,120c66.1,0,119.9-53.8,119.9-119.9
		c0-24-7.1-47.2-20.5-67.1c-1.2-1.8-0.8-4.3,1.1-5.6c1.8-1.2,4.3-0.7,5.6,1.1c14.3,21.2,21.8,45.9,21.8,71.5
		C352.2,362.5,294.8,419.9,224.3,419.9z"/>
	<path class="st5" d="M224.3,383.9c-24.6,0-47.6-9.6-65-26.9c-17.4-17.4-26.9-40.5-26.9-65c0-50.7,41.3-92,92-92
		c15.7,0,31.1,4,44.7,11.6c1.9,1.1,2.6,3.5,1.5,5.4s-3.5,2.6-5.4,1.5c-12.4-6.9-26.5-10.6-40.8-10.6c-46.3,0-84,37.7-84,84
		c0,22.4,8.7,43.5,24.6,59.4s36.9,24.6,59.4,24.6c46.3,0,84-37.7,84-84c0-14.4-3.7-28.5-10.7-41c-1.1-1.9-0.4-4.4,1.5-5.4
		c1.9-1.1,4.4-0.4,5.4,1.5c7.7,13.7,11.7,29.2,11.7,44.9C316.2,342.8,275,383.9,224.3,383.9z"/>
	<path class="st5" d="M224.3,347.9c-30.9,0-56-25.1-56-56s25.1-56,56-56c5.7,0,11.3,0.9,16.7,2.5c2.1,0.7,3.3,2.9,2.6,5
		s-2.9,3.3-5,2.6c-4.6-1.4-9.4-2.2-14.3-2.2c-26.5,0-48,21.5-48,48c0,26.4,21.5,48,48,48s48-21.5,48-48c0-5-0.7-9.9-2.2-14.5
		c-0.7-2.1,0.5-4.4,2.6-5c2.1-0.7,4.4,0.5,5,2.6c1.7,5.5,2.6,11.2,2.6,17C280.3,322.8,255.1,347.9,224.3,347.9z"/>
	<path class="st5" d="M224.9,311.2c-5.3,0-10.4-2.1-14.1-5.8c-7.8-7.8-7.8-20.5,0-28.3c1.6-1.6,4.1-1.6,5.7,0s1.6,4.1,0,5.7
		c-4.7,4.7-4.7,12.3,0,17c2.3,2.3,5.3,3.5,8.5,3.5l0,0c3.2,0,6.2-1.3,8.5-3.5c1.6-1.6,4.1-1.6,5.7,0s1.6,4.1,0,5.7
		C235.3,309.1,230.2,311.1,224.9,311.2L224.9,311.2z"/>
	<path class="st5" d="M224.3,296c-1,0-2-0.4-2.8-1.2c-1.6-1.6-1.6-4.1,0-5.7L483.6,26.9c1.6-1.6,4.1-1.6,5.7,0s1.6,4.1,0,5.7
		L227.1,294.8C226.3,295.6,225.3,296,224.3,296z"/>
	<path class="st5" d="M475.1,45c-1.7,0-3.2-1.1-3.8-2.7l-5.7-17c-0.7-2.1,0.4-4.4,2.5-5.1c2.1-0.7,4.4,0.4,5.1,2.5l5.7,17
		c0.7,2.1-0.4,4.4-2.5,5.1C475.9,45,475.5,45,475.1,45z"/>
	<path class="st5" d="M429.9,67.7c-1,0-2-0.4-2.8-1.2c-1.6-1.6-1.6-4.1,0-5.7l39.6-39.6c1.6-1.6,4.1-1.6,5.7,0s1.6,4.1,0,5.7
		l-39.6,39.6C431.9,67.2,430.9,67.7,429.9,67.7z"/>
	<path class="st5" d="M429.9,90.2c-2.2,0-4-1.8-4-4V63.6c0-2.2,1.8-4,4-4s4,1.8,4,4v22.6C433.9,88.5,432.1,90.2,429.9,90.2z"/>
	<path class="st5" d="M492.1,50.6c-0.4,0-0.8-0.1-1.3-0.2l-17-5.6c-2.1-0.7-3.2-3-2.5-5.1c0.7-2.1,3-3.2,5.1-2.5l17,5.6
		c2.1,0.7,3.2,3,2.5,5.1C495.3,49.6,493.8,50.6,492.1,50.6z"/>
	<path class="st5" d="M452.5,90.2c-1,0-2-0.4-2.8-1.2c-1.6-1.6-1.6-4.1,0-5.7l39.6-39.5c1.6-1.6,4.1-1.6,5.7,0
		c1.6,1.6,1.6,4.1,0,5.7l-39.7,39.5C454.5,89.9,453.5,90.2,452.5,90.2z"/>
	<path class="st5" d="M452.5,90.2h-22.6c-2.2,0-4-1.8-4-4s1.8-4,4-4h22.6c2.2,0,4,1.8,4,4C456.5,88.5,454.7,90.2,452.5,90.2z"/>
</g>
</svg>
